<?xml version="1.0" encoding="utf-8"?>
<svg xmlns="http://www.w3.org/2000/svg" viewBox="219.5279 777.6586 492.0864 124.8" width="492.086px" height="124.8px">
  <g transform="matrix(3.900000095367431, 0, 0, 3.900000095367431, 759.6779174804686, 839.8635864257812)">
    <g style="">
      <g transform="matrix(1 0 0 1 -122.5 0.05)">
        <rect style="stroke: none; stroke-width: 1; stroke-dasharray: none; stroke-linecap: butt; stroke-dashoffset: 0; stroke-linejoin: miter; stroke-miterlimit: 4; fill: rgb(122,184,249); fill-rule: nonzero; opacity: 1;" vector-effect="non-scaling-stroke" x="-16" y="-16" rx="16" ry="16" width="32" height="32"/>
      </g>
      <g transform="matrix(1 0 0 1 -122.5 0.05)">
        <path style="stroke: none; stroke-width: 1; stroke-dasharray: none; stroke-linecap: butt; stroke-dashoffset: 0; stroke-linejoin: miter; stroke-miterlimit: 4; fill: rgb(255,255,255); fill-opacity: 0.8; fill-rule: nonzero; opacity: 1;" vector-effect="non-scaling-stroke" transform=" translate(-16, -16.55)" d="M 25 16.5476 C 25 21.5182 20.9706 25.5476 16 25.5476 C 11.0294 25.5476 7 21.5182 7 16.5476 C 7 11.577 11.0294 7.54761 16 7.54761 C 20.9706 7.54761 25 11.577 25 16.5476 Z" stroke-linecap="round"/>
      </g>
      <g transform="matrix(1 0 0 1 -125.5 3.05)">
        <path style="stroke: none; stroke-width: 1; stroke-dasharray: none; stroke-linecap: butt; stroke-dashoffset: 0; stroke-linejoin: miter; stroke-miterlimit: 4; fill: rgb(45,45,45); fill-rule: evenodd; opacity: 1;" vector-effect="non-scaling-stroke" transform=" translate(-13, -19.55)" d="M 16 24.0476 C 20.1421 24.0476 23.5 20.6897 23.5 16.5476 C 23.5 12.4055 20.1421 9.04761 16 9.04761 C 11.8579 9.04761 8.5 12.4055 8.5 16.5476 C 8.5 20.6897 11.8579 24.0476 16 24.0476 Z M 16 26.5476 C 21.5228 26.5476 26 22.0705 26 16.5476 C 26 11.0248 21.5228 6.54761 16 6.54761 C 10.4772 6.54761 6 11.0248 6 16.5476 C 6 18.799 6.74401 20.8766 7.99957 22.548 L 0 30.5476 L 2 32.5476 L 9.99956 24.548 C 11.671 25.8036 13.7486 26.5476 16 26.5476 Z M 16 20.5476 C 18.2091 20.5476 20 18.7567 20 16.5476 C 20 14.3385 18.2091 12.5476 16 12.5476 C 13.7909 12.5476 12 14.3385 12 16.5476 C 12 18.7567 13.7909 20.5476 16 20.5476 Z" stroke-linecap="round"/>
      </g>
      <g transform="matrix(1 0 0 1 -119.5 -1.95)">
        <circle style="stroke: none; stroke-width: 1; stroke-dasharray: none; stroke-linecap: butt; stroke-dashoffset: 0; stroke-linejoin: miter; stroke-miterlimit: 4; fill: rgb(255,255,255); fill-rule: nonzero; opacity: 1;" vector-effect="non-scaling-stroke" cx="0" cy="0" r="2"/>
      </g>
      <g transform="matrix(1 0 0 1 -94.2 -0.16)">
        <path style="stroke: none; stroke-width: 1; stroke-dasharray: none; stroke-linecap: butt; stroke-dashoffset: 0; stroke-linejoin: miter; stroke-miterlimit: 4; fill: rgb(45,45,45); fill-rule: nonzero; opacity: 1;" vector-effect="non-scaling-stroke" transform=" translate(-44.3, -16.34)" d="M 39.7297 6.36621 L 39.7297 26.3154 L 48.8731 26.3154 L 48.8731 23.4016 L 43.0147 23.4016 L 43.0147 6.36621 L 39.7297 6.36621 Z" stroke-linecap="round"/>
      </g>
      <g transform="matrix(1 0 0 1 -52.64 -0.16)">
        <path style="stroke: none; stroke-width: 1; stroke-dasharray: none; stroke-linecap: butt; stroke-dashoffset: 0; stroke-linejoin: miter; stroke-miterlimit: 4; fill: rgb(45,45,45); fill-rule: nonzero; opacity: 1;" vector-effect="non-scaling-stroke" transform=" translate(-85.86, -16.34)" d="M 82.7265 15.8421 C 82.7265 16.2971 82.71 16.7783 82.6769 17.2858 C 82.6439 17.7758 82.6108 18.257 82.5778 18.7295 L 82.6522 18.7295 C 82.7844 18.5195 82.9414 18.292 83.1231 18.047 C 83.3049 17.7845 83.4867 17.5308 83.6685 17.2858 C 83.8668 17.0233 84.0568 16.7871 84.2386 16.5771 L 88.136 12.1847 L 91.6807 12.1847 L 86.3703 18.2307 L 92.0963 26.3154 L 88.4525 26.3154 L 84.2882 20.2257 L 82.7265 21.5906 L 82.7265 26.3154 L 79.6281 26.3154 L 79.6281 6.36621 L 82.7265 6.36621 L 82.7265 15.8421 Z" stroke-linecap="round"/>
      </g>
      <g transform="matrix(1 0 0 1 -33.52 2.75)">
        <path style="stroke: none; stroke-width: 1; stroke-dasharray: none; stroke-linecap: butt; stroke-dashoffset: 0; stroke-linejoin: miter; stroke-miterlimit: 4; fill: rgb(45,45,45); fill-rule: nonzero; opacity: 1;" vector-effect="non-scaling-stroke" transform=" translate(-104.98, -19.25)" d="M 111.214 26.3153 L 111.214 12.1846 L 107.956 12.1846 L 107.956 18.9427 C 107.956 19.9667 107.854 20.8371 107.648 21.5538 C 107.443 22.2535 107.092 22.7826 106.596 23.141 C 106.1 23.4994 105.416 23.6786 104.544 23.6786 C 103.672 23.6786 103.03 23.4226 102.62 22.9106 C 102.209 22.3815 102.004 21.605 102.004 20.5811 L 102.004 12.1846 L 98.7461 12.1846 L 98.7461 21.2466 C 98.7461 22.4242 98.9428 23.3884 99.3362 24.1393 C 99.7295 24.8902 100.302 25.4449 101.055 25.8033 C 101.808 26.1446 102.697 26.3153 103.723 26.3153 C 104.322 26.3153 104.886 26.2385 105.416 26.0849 C 105.964 25.9483 106.468 25.735 106.93 25.4449 C 107.392 25.1377 107.768 24.7452 108.059 24.2673 L 108.213 24.2673 L 108.675 26.3153 L 111.214 26.3153 Z" stroke-linecap="round"/>
      </g>
      <g transform="matrix(1 0 0 1 -18.56 5.66)">
        <path style="stroke: none; stroke-width: 1; stroke-dasharray: none; stroke-linecap: butt; stroke-dashoffset: 0; stroke-linejoin: miter; stroke-miterlimit: 4; fill: rgb(45,45,45); fill-rule: evenodd; opacity: 1;" vector-effect="non-scaling-stroke" transform=" translate(-119.94, -22.16)" d="M 124.746 13.9729 C 123.793 12.7807 122.505 12.1846 120.883 12.1846 C 120.197 12.1846 119.603 12.2769 119.102 12.4616 C 118.6 12.6464 118.165 12.8982 117.797 13.2173 C 117.446 13.5196 117.145 13.8554 116.894 14.2248 L 116.744 14.2248 L 116.292 12.1846 L 113.708 12.1846 L 113.708 32.1338 L 116.894 32.1338 L 116.894 26.7687 C 116.894 26.3824 116.877 25.9878 116.844 25.5848 C 116.81 25.165 116.777 24.804 116.744 24.5017 L 116.894 24.5017 C 117.128 24.8208 117.421 25.123 117.772 25.4085 C 118.123 25.6772 118.55 25.9039 119.052 26.0886 C 119.553 26.2565 120.139 26.3405 120.808 26.3405 C 121.878 26.3405 122.815 26.0718 123.617 25.5344 C 124.42 24.9971 125.047 24.1994 125.499 23.1415 C 125.95 22.0836 126.176 20.7822 126.176 19.2373 C 126.176 16.9032 125.7 15.1484 124.746 13.9729 Z M 118.174 15.2072 C 118.625 14.9049 119.219 14.7538 119.955 14.7538 C 120.958 14.7538 121.702 15.14 122.187 15.9125 C 122.672 16.6681 122.915 17.7596 122.915 19.1869 C 122.915 20.1273 122.806 20.9333 122.589 21.605 C 122.388 22.2767 122.07 22.7973 121.636 23.1667 C 121.201 23.5361 120.657 23.7209 120.005 23.7209 C 119.219 23.7209 118.592 23.5529 118.123 23.2171 C 117.672 22.8645 117.354 22.3523 117.17 21.6806 C 116.986 21.0089 116.894 20.1861 116.894 19.2121 L 116.894 18.8091 C 116.911 17.9023 117.02 17.1551 117.22 16.5674 C 117.421 15.9628 117.739 15.5094 118.174 15.2072 Z" stroke-linecap="round"/>
      </g>
      <g transform="matrix(1 0 0 1 -81.73 2.75)">
        <path style="stroke: none; stroke-width: 1; stroke-dasharray: none; stroke-linecap: butt; stroke-dashoffset: 0; stroke-linejoin: miter; stroke-miterlimit: 4; fill: rgb(45,45,45); fill-rule: evenodd; opacity: 1;" vector-effect="non-scaling-stroke" transform=" translate(-56.77, -19.25)" d="M 62.5696 22.242 C 62.859 21.3536 63.0037 20.3479 63.0037 19.2248 C 63.0037 17.6994 62.7384 16.4171 62.2078 15.3778 C 61.6772 14.3385 60.9457 13.5507 60.0132 13.0143 C 59.0968 12.4612 58.0276 12.1846 56.8057 12.1846 C 55.5034 12.1846 54.386 12.4612 53.4535 13.0143 C 52.521 13.5507 51.7975 14.3385 51.283 15.3778 C 50.7846 16.4171 50.5354 17.6994 50.5354 19.2248 C 50.5354 20.3479 50.6881 21.3536 50.9936 22.242 C 51.3152 23.1136 51.7493 23.8596 52.2959 24.4798 C 52.8426 25.0832 53.4937 25.5442 54.2493 25.8627 C 55.005 26.1644 55.833 26.3153 56.7334 26.3153 C 57.698 26.3153 58.5662 26.1644 59.3379 25.8627 C 60.1258 25.5442 60.7849 25.0832 61.3155 24.4798 C 61.8621 23.8596 62.2802 23.1136 62.5696 22.242 Z M 53.9841 21.6888 C 53.7751 21.0016 53.6706 20.1802 53.6706 19.2248 C 53.6706 17.7832 53.9117 16.6685 54.394 15.8807 C 54.8925 15.0761 55.6803 14.6738 56.7575 14.6738 C 57.497 14.6738 58.0919 14.8582 58.5421 15.2269 C 58.9923 15.579 59.3219 16.0902 59.5309 16.7607 C 59.756 17.4312 59.8685 18.2526 59.8685 19.2248 C 59.8685 20.1802 59.764 21.0016 59.555 21.6888 C 59.346 22.3761 59.0084 22.9041 58.5421 23.2729 C 58.0919 23.6417 57.5051 23.826 56.7816 23.826 C 56.0581 23.826 55.4632 23.6417 54.997 23.2729 C 54.5468 22.9041 54.2092 22.3761 53.9841 21.6888 Z" stroke-linecap="round"/>
      </g>
      <g transform="matrix(1 0 0 1 -67.6 2.75)">
        <path style="stroke: none; stroke-width: 1; stroke-dasharray: none; stroke-linecap: butt; stroke-dashoffset: 0; stroke-linejoin: miter; stroke-miterlimit: 4; fill: rgb(45,45,45); fill-rule: evenodd; opacity: 1;" vector-effect="non-scaling-stroke" transform=" translate(-70.9, -19.25)" d="M 77.1344 19.2248 C 77.1344 20.3479 76.9897 21.3536 76.7003 22.242 C 76.4109 23.1136 75.9929 23.8596 75.4462 24.4798 C 74.9157 25.0832 74.2565 25.5442 73.4687 25.8627 C 72.6969 26.1644 71.8288 26.3153 70.8641 26.3153 C 69.9637 26.3153 69.1357 26.1644 68.3801 25.8627 C 67.6244 25.5442 66.9733 25.0832 66.4266 24.4798 C 65.88 23.8596 65.4459 23.1136 65.1244 22.242 C 64.8189 21.3536 64.6661 20.3479 64.6661 19.2248 C 64.6661 17.6994 64.9153 16.4171 65.4138 15.3778 C 65.9282 14.3385 66.6517 13.5507 67.5842 13.0143 C 68.5167 12.4612 69.6341 12.1846 70.9364 12.1846 C 72.1583 12.1846 73.2275 12.4612 74.1439 13.0143 C 75.0765 13.5507 75.808 14.3385 76.3386 15.3778 C 76.8691 16.4171 77.1344 17.6994 77.1344 19.2248 Z M 67.8013 19.2248 C 67.8013 20.1802 67.9058 21.0016 68.1148 21.6888 C 68.3399 22.3761 68.6775 22.9041 69.1277 23.2729 C 69.594 23.6417 70.1888 23.826 70.9123 23.826 C 71.6358 23.826 72.2227 23.6417 72.6728 23.2729 C 73.1391 22.9041 73.4767 22.3761 73.6857 21.6888 C 73.8947 21.0016 73.9992 20.1802 73.9992 19.2248 C 73.9992 18.2526 73.8867 17.4312 73.6616 16.7607 C 73.4526 16.0902 73.123 15.579 72.6728 15.2269 C 72.2227 14.8582 71.6278 14.6738 70.8882 14.6738 C 69.811 14.6738 69.0232 15.0761 68.5248 15.8807 C 68.0425 16.6685 67.8013 17.7832 67.8013 19.2248 Z" stroke-linecap="round"/>
      </g>
    </g>
  </g>
</svg>